<svg id="Layer_1" data-name="Layer 1" xmlns="http://www.w3.org/2000/svg" viewBox="0 0 390.93 110.68"><defs><style>.cls-1{font-size:60px;fill:#007200;font-family:Colus-Regular, Colus;}.cls-2{letter-spacing:-0.02em;}.cls-3{fill:#0a7c00;}.cls-4{fill:#ffce05;}.cls-4,.cls-5,.cls-6{fill-rule:evenodd;}.cls-5{fill:#dd00b8;}.cls-6{fill:#ffd300;}.cls-7{fill:#e0170b;}</style></defs><text class="cls-1" transform="translate(117.83 70.83)"><tspan class="cls-2">S</tspan><tspan x="31.56" y="0">TRIKE </tspan></text><circle class="cls-3" cx="107.88" cy="216.49" r="30.78" transform="translate(-174.03 -21.45) rotate(-45)"/><circle class="cls-3" cx="107.88" cy="216.49" r="55.34" transform="translate(-174.03 -21.45) rotate(-45)"/><path class="cls-4" d="M156.84,213.14l-14.15,2.07a34.77,34.77,0,0,0-8.15-20.28l11.77-8.17a49,49,0,0,1,10.53,26.38Z" transform="translate(-52.54 -161.15)"/><path class="cls-4" d="M104.44,168.44a49.11,49.11,0,0,1,14.37,1.08l-3.43,13.87a34.54,34.54,0,0,0-18.83,1.13L91.85,171A48.8,48.8,0,0,1,104.44,168.44Z" transform="translate(-52.54 -161.15)"/><path class="cls-4" d="M73.4,221.13l-14.3.34a48.9,48.9,0,0,1,7.08-29.77l12.67,6.65a35,35,0,0,0-5.45,22.78Z" transform="translate(-52.54 -161.15)"/><path class="cls-4" d="M98.87,250.92,95,264.66a49,49,0,0,1-23.11-14.1l10.16-10A34.58,34.58,0,0,0,98.87,250.92Z" transform="translate(-52.54 -161.15)"/><path class="cls-4" d="M150.17,242.38a49,49,0,0,1-22.6,19.95l-6.36-12.81a34.82,34.82,0,0,0,16.63-14.33Z" transform="translate(-52.54 -161.15)"/><path class="cls-4" d="M75.42,242.2l-2.37,2.4a41.58,41.58,0,0,1-6-9.51c-.14-.31-.28-.62-.4-.93A41.91,41.91,0,0,1,64,224.63c0-.1,0-.21,0-.31l3.37-.18c0,.14,0,.27.07.41a38.08,38.08,0,0,0,2.45,8.34c.11.27.23.55.35.81A38.25,38.25,0,0,0,75.42,242.2Z" transform="translate(-52.54 -161.15)"/><path class="cls-4" d="M122.14,258.77a41.59,41.59,0,0,1-11,1.92h0a42,42,0,0,1-11.16-1.14l1.11-3.18a38.37,38.37,0,0,0,9.84,1h.1a39,39,0,0,0,9.68-1.6l1.44,2.91Z" transform="translate(-52.54 -161.15)"/><path class="cls-4" d="M151.5,228.1h0a41.57,41.57,0,0,1-3.49,9.21c-.21.41-.43.81-.66,1.22l-2.75-1.94.51-1h0a38.12,38.12,0,0,0,4.24-18.08v-.17l3.34-.44s0,.08,0,.12A42.15,42.15,0,0,1,151.5,228.1Z" transform="translate(-52.54 -161.15)"/><path class="cls-4" d="M139.72,187.29l-.55.43-2.1,1.65-.11-.11a38.46,38.46,0,0,0-7.74-6.07h0a38.22,38.22,0,0,0-9.17-3.93l.56-3.32a41.71,41.71,0,0,1,10.34,4.36l.05,0A41.76,41.76,0,0,1,139.72,187.29Z" transform="translate(-52.54 -161.15)"/><path class="cls-4" d="M91.42,180.39a38.74,38.74,0,0,0-8.36,5.47c-.32.27-.63.56-.94.84a37.94,37.94,0,0,0-5.71,6.61l-3-1.59A41.9,41.9,0,0,1,80,184.13c.3-.28.61-.55.92-.82a41.56,41.56,0,0,1,9.42-6.1Z" transform="translate(-52.54 -161.15)"/><path class="cls-5" d="M76.53,228.6Z" transform="translate(-52.54 -161.15)"/><path class="cls-6" d="M138.06,216.94a30.18,30.18,0,1,1-30.18-30.18A30.18,30.18,0,0,1,138.06,216.94Z" transform="translate(-52.54 -161.15)"/><path class="cls-7" d="M95.6,220.41h9.32L96.28,234h10.88l10.2-20.4h-8l8-19Z" transform="translate(-52.54 -161.15)"/><path class="cls-7" d="M66.73,206.89a.17.17,0,0,0-.18,0,.19.19,0,0,0-.07.17l.16.74-.52.54a.16.16,0,0,0,0,.07.17.17,0,0,0,.14.22l.75.08.35.66a.19.19,0,0,0,.16.09.18.18,0,0,0,.15-.1l.31-.69.73-.13a.17.17,0,0,0,.14-.12.18.18,0,0,0,0-.18l-.55-.5.1-.74a.17.17,0,0,0-.26-.17l-.65.37Z" transform="translate(-52.54 -161.15)"/><path class="cls-7" d="M68.19,215.18a1,1,0,0,1,1.22-.68.32.32,0,0,0,.39-.21l3-10.29a.31.31,0,0,0,0-.23.29.29,0,0,0-.19-.15,1,1,0,0,1-.59-.47,1.05,1.05,0,0,1-.08-.76.32.32,0,0,0-.22-.39l-1.17-.33a.32.32,0,0,0-.39.21.73.73,0,0,1-1.34.16.77.77,0,0,1-.06-.56.32.32,0,0,0-.22-.39l-1.17-.33a.32.32,0,0,0-.39.21.93.93,0,0,1-.47.59,1,1,0,0,1-.75.09.32.32,0,0,0-.39.21l-3,10.29a.32.32,0,0,0,.22.39,1,1,0,0,1,.59.47.93.93,0,0,1,.08.75.33.33,0,0,0,0,.24.36.36,0,0,0,.19.15l1.17.33a.31.31,0,0,0,.39-.21.73.73,0,0,1,1.34-.15.7.7,0,0,1,.06.55.31.31,0,0,0,.22.39l1.17.34a.33.33,0,0,0,.24,0A.32.32,0,0,0,68.19,215.18Zm-3.35-4.5,1.8-6.25,3.61,1-1.79,6.25Z" transform="translate(-52.54 -161.15)"/><path class="cls-7" d="M148.61,202.86a.17.17,0,0,0,.13-.13.18.18,0,0,0-.06-.17l-.57-.49.08-.74a.19.19,0,0,0,0-.08.14.14,0,0,0-.07-.08.17.17,0,0,0-.18,0l-.64.39-.68-.3a.17.17,0,0,0-.18,0,.2.2,0,0,0-.06.18l.18.72-.51.56a.18.18,0,0,0,.12.29l.74.06.38.65a.18.18,0,0,0,.16.08.18.18,0,0,0,.15-.1l.28-.7Z" transform="translate(-52.54 -161.15)"/><path class="cls-7" d="M142.38,197.2a1,1,0,0,1,0,.75,1,1,0,0,1-.54.53.32.32,0,0,0-.18.41l4,9.94a.33.33,0,0,0,.16.17.36.36,0,0,0,.25,0,1,1,0,0,1,1.28.56.31.31,0,0,0,.41.17l1.13-.45a.31.31,0,0,0,.17-.41.73.73,0,0,1,1.36-.54.31.31,0,0,0,.41.18l1.13-.45a.32.32,0,0,0,.18-.41,1,1,0,0,1,.55-1.28.31.31,0,0,0,.17-.41L148.86,196a.32.32,0,0,0-.41-.18,1,1,0,0,1-1.28-.55.29.29,0,0,0-.17-.17.33.33,0,0,0-.24,0l-1.13.46a.31.31,0,0,0-.18.4.73.73,0,0,1-.41.95.73.73,0,0,1-.94-.41.31.31,0,0,0-.41-.17l-1.13.45a.35.35,0,0,0-.18.16A.36.36,0,0,0,142.38,197.2Zm5.4,1.51,2.4,6-3.49,1.39-2.41-6Z" transform="translate(-52.54 -161.15)"/><path class="cls-7" d="M136.18,250.74a.18.18,0,0,0,.17.07.18.18,0,0,0,.14-.11l.24-.71.72-.21a.1.1,0,0,0,.07,0,.13.13,0,0,0,0-.09.17.17,0,0,0-.07-.17l-.6-.45,0-.74a.17.17,0,0,0-.09-.16.17.17,0,0,0-.18,0l-.61.43-.7-.26a.18.18,0,0,0-.23.22l.23.71-.46.59a.15.15,0,0,0,0,.18.15.15,0,0,0,.15.1h.75Z" transform="translate(-52.54 -161.15)"/><path class="cls-7" d="M139.12,242.85a1,1,0,0,1-.71.27,1,1,0,0,1-.69-.3.31.31,0,0,0-.44,0l-7.75,7.37a.32.32,0,0,0-.1.22.35.35,0,0,0,.09.23,1,1,0,0,1,0,1.39.33.33,0,0,0,0,.45l.84.88a.33.33,0,0,0,.45,0,.72.72,0,0,1,1,0,.75.75,0,0,1,.2.52.78.78,0,0,1-.23.51.31.31,0,0,0,0,.44l.84.88a.31.31,0,0,0,.44,0,1.05,1.05,0,0,1,.71-.27,1,1,0,0,1,.69.31.37.37,0,0,0,.22.1.33.33,0,0,0,.23-.09l7.75-7.38a.31.31,0,0,0,0-.44,1,1,0,0,1-.28-.71,1,1,0,0,1,.31-.69.32.32,0,0,0,.1-.22.31.31,0,0,0-.09-.22l-.84-.88a.31.31,0,0,0-.44,0,.74.74,0,0,1-1,0,.74.74,0,0,1,0-1,.32.32,0,0,0,0-.45l-.84-.88a.35.35,0,0,0-.22-.1A.31.31,0,0,0,139.12,242.85Zm.61,5.57L135,252.91l-2.59-2.73,4.7-4.48Z" transform="translate(-52.54 -161.15)"/><path class="cls-7" d="M85.72,254.88a.17.17,0,0,0,.13.28h.75l.41.62.06.05a.14.14,0,0,0,.11,0,.16.16,0,0,0,.14-.11l.24-.71.72-.2a.17.17,0,0,0,.12-.14.15.15,0,0,0-.06-.16l-.6-.45,0-.75a.17.17,0,0,0-.09-.16.17.17,0,0,0-.18,0l-.61.43-.71-.26a.15.15,0,0,0-.17,0,.16.16,0,0,0-.05.17l.22.72Z" transform="translate(-52.54 -161.15)"/><path class="cls-7" d="M94.12,255.25a1,1,0,0,1-.39-1.33.31.31,0,0,0-.13-.43l-9.39-5.12a.31.31,0,0,0-.43.13,1,1,0,0,1-1.34.39A.3.3,0,0,0,82,249l-.59,1.07a.31.31,0,0,0,.13.42.74.74,0,0,1,.29,1,.71.71,0,0,1-.43.35.69.69,0,0,1-.56-.06.33.33,0,0,0-.43.13L79.85,253a.32.32,0,0,0,.13.43.94.94,0,0,1,.47.58,1,1,0,0,1-.08.76.29.29,0,0,0,0,.24.27.27,0,0,0,.15.18l9.39,5.12a.32.32,0,0,0,.43-.12.92.92,0,0,1,.59-.48,1,1,0,0,1,.75.08.33.33,0,0,0,.24,0,.41.41,0,0,0,.19-.16l.58-1.07a.31.31,0,0,0-.13-.42.74.74,0,0,1-.29-1,.71.71,0,0,1,.43-.35.69.69,0,0,1,.56.06.33.33,0,0,0,.43-.13l.58-1.07a.33.33,0,0,0-.13-.43ZM89,257.54l-5.7-3.11,1.8-3.3,5.7,3.11Z" transform="translate(-52.54 -161.15)"/><path class="cls-7" d="M105.2,176.57a.16.16,0,0,0,.08.16.19.19,0,0,0,.18,0l.63-.4.69.31h.08a.21.21,0,0,0,.1,0,.16.16,0,0,0,.05-.17l-.17-.73.49-.56a.15.15,0,0,0,0-.18.15.15,0,0,0-.14-.1l-.75-.06-.38-.65a.18.18,0,0,0-.16-.08.16.16,0,0,0-.14.11l-.29.69-.73.16a.17.17,0,0,0-.13.13.18.18,0,0,0,.06.17l.57.48Z" transform="translate(-52.54 -161.15)"/><path class="cls-7" d="M112.48,172.35a1,1,0,0,1-.72-.24,1,1,0,0,1-.34-.68.31.31,0,0,0-.33-.29l-10.68.76a.33.33,0,0,0-.21.11.31.31,0,0,0-.08.23.92.92,0,0,1-.24.71,1,1,0,0,1-.67.34.32.32,0,0,0-.29.34l.08,1.21a.33.33,0,0,0,.34.3.72.72,0,0,1,.6,1.2.69.69,0,0,1-.5.25.32.32,0,0,0-.29.34l.09,1.21a.3.3,0,0,0,.33.29,1,1,0,0,1,.72.24,1,1,0,0,1,.34.68.29.29,0,0,0,.11.21.27.27,0,0,0,.23.08l10.67-.76a.32.32,0,0,0,.29-.34.94.94,0,0,1,.24-.71,1,1,0,0,1,.67-.34.33.33,0,0,0,.22-.11.3.3,0,0,0,.07-.23l-.08-1.21a.31.31,0,0,0-.34-.29.73.73,0,0,1-.6-1.21.73.73,0,0,1,.5-.25.31.31,0,0,0,.29-.33l-.09-1.22a.32.32,0,0,0-.1-.22A.33.33,0,0,0,112.48,172.35ZM109.4,177l-6.48.46-.27-3.75,6.48-.47Z" transform="translate(-52.54 -161.15)"/></svg>